<svg xmlns="http://www.w3.org/2000/svg" xmlns:xlink="http://www.w3.org/1999/xlink" width="1041" height="441" viewBox="0 0 1041 441">
  <defs>
    <clipPath id="clip-Transparent-logo-2">
      <rect width="1041" height="441"/>
    </clipPath>
  </defs>
  <g id="Transparent-logo-2" clip-path="url(#clip-Transparent-logo-2)">
    <text id="L_cate" data-name="L   cate" transform="translate(0 250)" fill="#d4d6d7" font-size="300" font-family="TeluguMN, Telugu MN" letter-spacing="0.03em"><tspan x="0" y="0" xml:space="preserve">L   cate</tspan></text>
    <g id="Component_1_1" data-name="Component 1 – 1" transform="translate(17 252)">
      <text id="bi_akzone" data-name="bi   akzone" transform="translate(0 169)" fill="#d4d6d7" font-size="190" font-family="TeluguMN, Telugu MN" letter-spacing="0.03em"><tspan x="0" y="0" xml:space="preserve">bi   akzone</tspan></text>
    </g>
    <path id="Icon_awesome-map-marker-alt" data-name="Icon awesome-map-marker-alt" d="M103.592,327.783c-87.759-137.725-104-151.384-104-202,0-69.333,51.953-126,116-126s116,56.667,116,126c0,50.616-16.241,64.274-104,202A14.037,14.037,0,0,1,103.592,327.783Zm12-150c26.686,0,49-23.111,49-52s-22.314-53-49-53-48,24.111-48,53S88.906,177.783,115.592,177.783Z" transform="translate(157.408 71.217)" fill="#668b4a"/>
  </g>
</svg>
