<svg xmlns="http://www.w3.org/2000/svg" height="512pt" version="1.1" viewBox="0 -59 512.00001 512" width="512pt">
<g id="surface1">
<path d="M 397.359375 126.1875 C 456.777344 137.84375 501.710938 190.226562 501.710938 253.113281 C 501.710938 324.5 443.761719 382.453125 372.375 382.453125 C 323.453125 382.453125 280.933594 355.367188 258.886719 315.261719 C 252.691406 304.03125 248.179688 291.851562 245.554688 278.832031 C 243.875 270.539062 243.035156 261.828125 243.035156 253.007812 C 243.035156 225.398438 251.75 199.675781 266.550781 178.679688 C 287.863281 148.339844 321.878906 127.554688 360.929688 124.195312 C 364.710938 123.878906 368.59375 123.667969 372.476562 123.667969 C 380.875 123.773438 389.277344 124.613281 397.359375 126.1875 Z M 375.207031 324.394531 C 437.566406 299.09375 458.667969 253.53125 452.054688 219.414062 C 447.433594 196.527344 431.164062 181.722656 410.167969 181.722656 C 398.511719 181.722656 385.707031 186.554688 373.210938 195.582031 C 360.613281 186.132812 347.910156 181.304688 336.046875 181.304688 C 314.945312 181.304688 298.675781 196.105469 294.265625 219.414062 C 287.652344 253.953125 308.859375 299.726562 371.113281 324.394531 C 371.742188 324.605469 372.476562 324.816406 373.105469 324.816406 C 373.84375 324.710938 374.578125 324.5 375.207031 324.394531 Z M 375.207031 324.394531 " style=" stroke:none;fill-rule:nonzero;fill:rgb(99.607843%,85.882353%,25.490196%);fill-opacity:1;" />
<path d="M 452.054688 219.414062 C 458.667969 253.53125 437.566406 299.09375 375.207031 324.394531 C 374.578125 324.605469 373.84375 324.816406 373.214844 324.816406 C 372.582031 324.816406 371.847656 324.605469 371.21875 324.394531 C 308.964844 299.726562 287.757812 253.953125 294.371094 219.414062 C 298.78125 196.105469 315.054688 181.304688 336.15625 181.304688 C 348.015625 181.304688 360.613281 186.132812 373.316406 195.582031 C 385.8125 186.554688 398.621094 181.726562 410.273438 181.726562 C 431.164062 181.726562 447.4375 196.527344 452.054688 219.414062 Z M 452.054688 219.414062 " style=" stroke:none;fill-rule:nonzero;fill:rgb(99.607843%,85.882353%,25.490196%);fill-opacity:1;" />
<path d="M 397.359375 10.183594 L 397.359375 126.292969 C 389.277344 124.71875 380.875 123.878906 372.375 123.878906 C 368.488281 123.878906 364.605469 124.089844 360.824219 124.402344 L 360.824219 46.820312 L 47.242188 46.820312 L 47.242188 279.042969 L 245.554688 279.042969 C 248.179688 291.957031 252.691406 304.238281 258.886719 315.472656 L 258.570312 315.683594 L 10.601562 315.683594 L 10.601562 10.183594 Z M 397.359375 10.183594 " style=" stroke:none;fill-rule:nonzero;fill:rgb(0%,93.72549%,81.960784%);fill-opacity:1;" />
<path d="M 360.71875 46.714844 L 360.71875 124.300781 C 321.773438 127.761719 287.757812 148.550781 266.339844 178.785156 L 222.5625 215.738281 C 215.84375 221.40625 206.1875 221.511719 199.363281 216.054688 L 135.953125 165.347656 C 129.023438 159.78125 119.050781 159.992188 112.4375 165.976562 L 47.242188 223.613281 L 47.242188 46.714844 Z M 235.792969 127.238281 C 235.792969 110.757812 222.457031 97.421875 205.976562 97.421875 C 189.496094 97.421875 176.054688 110.757812 176.054688 127.238281 C 176.054688 143.71875 189.390625 157.054688 205.976562 157.054688 C 222.5625 157.054688 235.792969 143.71875 235.792969 127.238281 Z M 235.792969 127.238281 " style=" stroke:none;fill-rule:nonzero;fill:rgb(99.607843%,85.882353%,25.490196%);fill-opacity:1;" />
<path d="M 222.667969 215.84375 L 266.445312 178.890625 C 251.644531 199.886719 242.929688 225.503906 242.929688 253.21875 C 242.929688 262.035156 243.769531 270.644531 245.449219 279.042969 L 47.242188 279.042969 L 47.242188 223.613281 L 112.4375 166.082031 C 119.050781 160.203125 129.023438 159.992188 135.953125 165.453125 L 199.363281 216.160156 C 206.1875 221.617188 215.949219 221.511719 222.667969 215.84375 Z M 222.667969 215.84375 " style=" stroke:none;fill-rule:nonzero;fill:rgb(0%,67.45098%,91.764706%);fill-opacity:1;" />
<path d="M 205.976562 97.316406 C 222.457031 97.316406 235.789062 110.652344 235.789062 127.132812 C 235.789062 143.617188 222.457031 156.949219 205.976562 156.949219 C 189.492188 156.949219 176.054688 143.617188 176.054688 127.132812 C 176.054688 110.652344 189.492188 97.316406 205.976562 97.316406 Z M 205.976562 97.316406 " style=" stroke:none;fill-rule:nonzero;fill:rgb(0%,67.45098%,91.764706%);fill-opacity:1;" />
<path d="M 205.976562 86.820312 C 183.71875 86.820312 165.558594 104.878906 165.558594 127.238281 C 165.558594 149.496094 183.613281 167.550781 205.976562 167.550781 C 228.230469 167.550781 246.289062 149.496094 246.289062 127.238281 C 246.394531 104.980469 228.230469 86.820312 205.976562 86.820312 Z M 205.976562 146.554688 C 195.265625 146.554688 186.554688 137.839844 186.554688 127.238281 C 186.554688 116.53125 195.265625 107.816406 205.976562 107.816406 C 216.683594 107.816406 225.292969 116.53125 225.292969 127.238281 C 225.398438 137.84375 216.683594 146.554688 205.976562 146.554688 Z M 205.976562 146.554688 " style=" stroke:none;fill-rule:nonzero;fill:rgb(3.137255%,21.960784%,38.823529%);fill-opacity:1;" />
<path d="M 407.332031 117.894531 L 407.332031 10.078125 C 407.332031 4.304688 403.132812 0 397.359375 0 L 10.601562 0 C 4.828125 0 0 4.304688 0 10.078125 L 0 315.472656 C 0 321.246094 4.828125 326.390625 10.601562 326.390625 L 253.007812 326.390625 C 278.308594 367.335938 323.453125 393.160156 372.375 393.160156 C 449.535156 393.160156 512 330.273438 512 253.21875 C 511.894531 189.492188 469.273438 133.851562 407.332031 117.894531 Z M 20.996094 20.996094 L 386.335938 20.996094 L 386.335938 114.011719 C 382.136719 113.484375 377.097656 113.277344 372.265625 113.277344 C 371.953125 113.277344 371.636719 113.277344 371.636719 113.277344 L 371.636719 46.714844 C 371.636719 40.941406 366.597656 36.742188 360.71875 36.742188 L 47.242188 36.742188 C 41.46875 36.742188 36.742188 40.941406 36.742188 46.714844 L 36.742188 278.9375 C 36.742188 284.710938 41.46875 289.75 47.242188 289.75 L 237.261719 289.75 C 238.730469 295 240.410156 300.25 242.402344 305.5 L 20.996094 305.5 Z M 233.269531 268.753906 L 57.742188 268.753906 L 57.742188 228.335938 L 119.363281 173.953125 C 122.199219 171.4375 126.398438 171.332031 129.445312 173.746094 L 192.851562 224.453125 C 203.5625 233.058594 218.992188 232.746094 229.386719 223.925781 L 237.050781 217.417969 C 234.003906 228.964844 232.429688 241.144531 232.429688 253.320312 C 232.429688 258.464844 232.746094 263.503906 233.269531 268.753906 Z M 258.886719 171.644531 L 215.949219 207.863281 C 213.113281 210.28125 208.914062 210.28125 205.976562 207.96875 L 142.460938 157.261719 C 131.542969 148.550781 115.902344 148.863281 105.402344 158.207031 L 57.742188 200.304688 L 57.742188 57.738281 L 350.640625 57.738281 L 350.640625 115.058594 C 313.898438 120.835938 280.828125 141.097656 258.886719 171.644531 Z M 372.375 372.058594 C 329.015625 372.058594 289.226562 348.4375 268.335938 310.328125 C 262.5625 299.828125 258.363281 288.597656 256.261719 276.945312 C 254.164062 269.175781 253.742188 261.195312 253.742188 253.21875 C 253.742188 228.652344 261.09375 205.03125 275.265625 184.980469 C 295.527344 156.214844 327.019531 137.945312 361.875 134.902344 C 365.339844 134.589844 368.804688 134.484375 372.476562 134.484375 C 380.246094 134.484375 387.910156 135.21875 395.46875 136.6875 C 451.003906 147.605469 491.320312 196.632812 491.320312 253.324219 C 491.214844 318.726562 437.882812 372.058594 372.375 372.058594 Z M 372.375 372.058594 " style=" stroke:none;fill-rule:nonzero;fill:rgb(3.137255%,21.960784%,38.823529%);fill-opacity:1;" />
<path d="M 410.167969 171.121094 C 398.304688 171.121094 385.707031 175.109375 373.316406 182.773438 C 360.824219 174.796875 348.332031 170.699219 336.046875 170.699219 C 309.804688 170.699219 289.332031 189.074219 283.976562 217.3125 C 276.523438 256.050781 299.410156 307.074219 367.226562 334.054688 C 367.4375 334.160156 367.542969 334.160156 367.753906 334.265625 C 369.644531 334.894531 371.429688 335.207031 373.105469 335.207031 C 374.785156 335.207031 376.46875 334.894531 378.355469 334.265625 C 378.566406 334.160156 378.777344 334.160156 378.988281 334.054688 C 446.804688 306.546875 469.691406 255.632812 462.238281 217.417969 C 462.238281 217.417969 462.238281 217.417969 462.238281 217.3125 C 456.675781 189.285156 436.203125 171.121094 410.167969 171.121094 Z M 373.214844 313.792969 C 317.992188 291.117188 298.992188 251.222656 304.660156 221.300781 C 308.125 203.035156 320.195312 191.699219 336.050781 191.699219 C 345.601562 191.699219 356.207031 195.898438 366.914062 203.875 C 370.589844 206.605469 375.628906 206.605469 379.40625 203.980469 C 389.90625 196.316406 400.824219 192.117188 410.167969 192.117188 C 426.019531 192.117188 438.195312 203.351562 441.765625 221.40625 C 447.4375 250.90625 428.433594 290.695312 373.214844 313.792969 Z M 373.214844 313.792969 " style=" stroke:none;fill-rule:nonzero;fill:rgb(3.137255%,21.960784%,38.823529%);fill-opacity:1;" />
</g>
</svg>